<?xml version="1.0" encoding="UTF-8"?>
<svg xmlns="http://www.w3.org/2000/svg" viewBox="0 0 1280 640" role="img" aria-label="tutor/mcp — Self-learning is a superpower. A Model Context Protocol server that turns your AI into a super-intelligent tutor.">
  <title>tutor/mcp — Self-learning is a superpower.</title>
  <defs>
    <style>
      .mono { font-family: ui-monospace, "JetBrains Mono", "Cascadia Mono", "SFMono-Regular", Menlo, Consolas, monospace; }
      .sans { font-family: system-ui, -apple-system, "Inter Tight", "Segoe UI", Roboto, sans-serif; }
      .serif { font-family: "Instrument Serif", Georgia, "Times New Roman", serif; font-style: italic; }
    </style>
    <linearGradient id="bg" x1="0" y1="0" x2="1" y2="1">
      <stop offset="0%" stop-color="#FCFAF7"/>
      <stop offset="100%" stop-color="#F5F0EA"/>
    </linearGradient>
    <radialGradient id="blobTerracotta" cx="0.85" cy="0.18" r="0.45">
      <stop offset="0%" stop-color="#e8804a" stop-opacity="0.16"/>
      <stop offset="65%" stop-color="#e8804a" stop-opacity="0"/>
    </radialGradient>
    <radialGradient id="blobLavender" cx="0.18" cy="0.85" r="0.40">
      <stop offset="0%" stop-color="#b496c8" stop-opacity="0.12"/>
      <stop offset="65%" stop-color="#b496c8" stop-opacity="0"/>
    </radialGradient>
    <linearGradient id="taglineFill" x1="0" y1="0" x2="1" y2="0">
      <stop offset="0%" stop-color="#e8804a"/>
      <stop offset="100%" stop-color="#d97757"/>
    </linearGradient>
    <linearGradient id="ctaFill" x1="0" y1="0" x2="0" y2="1">
      <stop offset="0%" stop-color="#e8804a"/>
      <stop offset="100%" stop-color="#d97742"/>
    </linearGradient>
  </defs>

  <!-- Background covers the FULL canvas (no white border anywhere) -->
  <rect x="0" y="0" width="1280" height="640" fill="url(#bg)"/>
  <rect x="0" y="0" width="1280" height="640" fill="url(#blobTerracotta)"/>
  <rect x="0" y="0" width="1280" height="640" fill="url(#blobLavender)"/>

  <!-- Eyebrow -->
  <g>
    <line x1="88" y1="80" x2="112" y2="80" stroke="#7a7370" stroke-opacity="0.45" stroke-width="1"/>
    <text x="126" y="84" class="mono" font-size="12" letter-spacing="2.6" fill="#7a7370">OPEN SOURCE  ·  MODEL CONTEXT PROTOCOL</text>
  </g>

  <!-- Hero: neural-net logo + wordmark -->
  <g transform="translate(88 110)">
    <g transform="scale(1.28)">
      <g stroke="#e8804a" stroke-width="1.2" stroke-linecap="round" stroke-opacity="0.6" fill="none">
        <line x1="26" y1="24" x2="50" y2="56"/>
        <line x1="72" y1="18" x2="50" y2="56"/>
        <line x1="82" y1="46" x2="50" y2="56"/>
        <line x1="68" y1="78" x2="50" y2="56"/>
        <line x1="22" y1="70" x2="50" y2="56"/>
        <line x1="44" y1="44" x2="50" y2="56"/>
      </g>
      <circle cx="26" cy="24" r="3.6" fill="#e8804a"/>
      <circle cx="72" cy="18" r="2.6" fill="#e8804a"/>
      <circle cx="82" cy="46" r="3.6" fill="#e8804a"/>
      <circle cx="68" cy="78" r="3.6" fill="#e8804a"/>
      <circle cx="22" cy="70" r="3.6" fill="#e8804a"/>
      <circle cx="50" cy="56" r="5" fill="#d97757"/>
    </g>
    <text x="160" y="72" class="sans" font-size="64" font-weight="700" fill="#1c1a18" letter-spacing="-2">tutor/mcp</text>
  </g>

  <!-- Tagline -->
  <text x="88" y="280" class="serif" font-size="44" fill="url(#taglineFill)">Self-learning is a superpower.</text>

  <!-- Glass focus card mockup (centered, lower half) -->
  <g transform="translate(88 340)">
    <rect x="0" y="0" width="520" height="220" rx="18" ry="18"
          fill="rgba(255,255,255,0.72)" stroke="rgba(232,128,74,0.32)" stroke-width="1"/>
    <text x="24" y="40" class="serif" font-size="18" fill="#c46a3c">crack the RNA-seq pipeline</text>
    <text x="24" y="86" class="sans" font-size="32" font-weight="600" fill="#1c1a18" letter-spacing="-0.5">for / while loops</text>
    <text x="24" y="120" class="sans" font-size="14" fill="#5a5249">96% of your recent errors involve iteration.</text>
    <text x="24" y="142" class="sans" font-size="13" fill="#6a625d">P(mastery) 0.32  ·  Retention 41%  ·  3d since review</text>
    <g transform="translate(24 165)">
      <rect x="0" y="0" width="130" height="36" rx="10" fill="url(#ctaFill)"/>
      <text x="20" y="23" class="sans" font-size="14" font-weight="600" fill="#fff">let's go →</text>
    </g>
  </g>

  <!-- Right side decorative KC pills -->
  <g transform="translate(720 340)" class="sans" font-size="13" fill="#1c1a18">
    <g>
      <circle cx="12" cy="26" r="6" fill="#e8804a"/>
      <text x="32" y="30">Variables &amp; types · solid</text>
    </g>
    <g transform="translate(0 36)">
      <circle cx="12" cy="26" r="6" fill="#f3a875"/>
      <text x="32" y="30">Conditionals · in progress</text>
    </g>
    <g transform="translate(0 72)">
      <circle cx="12" cy="26" r="6" fill="none" stroke="#c46a3c" stroke-width="1.5" stroke-dasharray="2 2"/>
      <text x="32" y="30">Functions · shaky</text>
    </g>
    <g transform="translate(0 108)">
      <circle cx="12" cy="26" r="6" fill="rgba(122,115,112,0.25)" stroke="rgba(122,115,112,0.3)"/>
      <text x="32" y="30">Lists &amp; comprehensions</text>
    </g>
    <g transform="translate(0 144)">
      <circle cx="12" cy="26" r="6" fill="rgba(122,115,112,0.25)" stroke="rgba(122,115,112,0.3)"/>
      <text x="32" y="30">Dictionaries</text>
    </g>
  </g>
</svg>
